<?xml version="1.0" encoding="utf-8"?>
<!-- Generator: Adobe Illustrator 27.2.0, SVG Export Plug-In . SVG Version: 6.00 Build 0)  -->
<svg version="1.1" id="Layer_1" xmlns="http://www.w3.org/2000/svg" xmlns:xlink="http://www.w3.org/1999/xlink" x="0px" y="0px"
	 viewBox="0 0 48 48" style="enable-background:new 0 0 48 48;" xml:space="preserve">
<path d="M34.3,28.9c1.8-2.8,2.8-6,2.8-9.6c0-9.9-8-17.8-17.8-17.8c-9.9,0-17.8,8-17.8,17.8s8,17.8,17.8,17.8c3.6,0,6.9-1.1,9.7-2.9
	l0.8-0.6l12.7,12.7l3.9-4L33.7,29.7L34.3,28.9z M29.3,9.3c2.7,2.7,4.1,6.2,4.1,10s-1.5,7.3-4.1,10s-6.2,4.1-10,4.1s-7.3-1.5-10-4.1
	s-4.1-6.2-4.1-10s1.5-7.3,4.1-10s6.2-4.1,10-4.1C23.1,5.2,26.6,6.7,29.3,9.3z"/>
</svg>
