<?xml version="1.0" encoding="utf-8"?>
<!-- Generator: Adobe Illustrator 27.2.0, SVG Export Plug-In . SVG Version: 6.00 Build 0)  -->
<svg version="1.1" id="Capa_1" 
	 width="40px" height="40px"
	 xmlns="http://www.w3.org/2000/svg" 
	 xmlns:xlink="http://www.w3.org/1999/xlink" x="0px" y="0px"
	 viewBox="0 0 456 456" style="enable-background:new 0 0 456 456;" xml:space="preserve">
<style type="text/css">
	.st0{fill:#FFFFFF;}
	.st1{fill:#006E98;}
	.st2{fill:#00C868;}
	.st3{fill:#BFDBE5;}
	.st4{fill:#40D68E;}
	.st5{fill:#41D68F;}
	.st6{fill:#7CB4CA;}
	.st7{fill:#7EB5CB;}
	.st8{fill:#80B7CC;}
	.st9{fill:#4092B2;}
	.st10{fill:#C1DCE6;}
	.st11{fill:#C1F1DA;}
	.st12{fill:#88E5B9;}
	.st13{fill:#C9F3DF;}
	.st14{fill:#C5DEE7;}
	.st15{fill:#3A8FB0;}
	.st16{fill:#C2F2DB;}
	.st17{fill:#7DB5CA;}
	.st18{fill:#BCDAE4;}
	.st19{fill:#BAD8E3;}
</style>
<rect class="st0" width="456" height="456"/>
<g>
	<g>
		<path class="st0" d="M10.1,143.5c0-42,0-84-0.1-126c0-2.8,0.4-3.5,3.4-3.5c143.4,0.1,286.8,0.1,430.3,0c2.6,0,3.3,0.5,3.3,3.2
			c-0.1,143.6-0.1,287.1,0,430.7c0,2.6-0.6,3-3.1,3c-19.2-0.1-38.3-0.1-57.5-0.1c-1.7-1.9-1.4-4.3-1.4-6.5c0-15.2,0-30.3,0-45.5
			c0-7,0-7.1-7.1-7.1c-96.1,0-192.2,0-288.4,0c-9.8,0-19.6,0-29.3,0c-2,0-4,0.1-5.9-0.6c-0.5-0.2-0.9-0.6-1.1-1
			c0.5-1.8,2.2-1.6,3.5-1.9c11.3-2.1,17.4-9.5,19.9-20.1c0.9-3.8,1.3-7.8,1.3-11.8c-0.1-17.1-0.1-34.3,0-51.4c0-1.9-0.7-4.6,1.4-5.4
			c1.8-0.7,3,1.7,4.1,3c8.3,10.1,18.9,15.5,31.9,16.3c1.6,0.5,3.2,0.6,4.9,0.5c2.8,0,5.7,0,8.5,0c1.6,0,3.2,0.1,4.7-0.4
			c13-0.7,24.3-5.7,33.3-15.1c9.2-9.6,15.3-21,19.1-33.8c2.6-8.6,3.9-17.4,4.8-26.3c0.5-1.6,0.5-3.2,0.4-4.8c0-4.1,0-8.3,0-12.4
			c0.1-1.6,0.2-3.2-0.3-4.8c-1.2-12.3-3.1-24.4-8.1-35.9c-10.3-24-27.6-38.6-54.2-41c-2.5-0.7-5-0.7-7.6,0
			c-16.5,1.4-30.2,8.1-40.2,21.6c-2.1,2.8-3.7,2.5-5-1c-1.1-2.9-1.7-6-3.2-8.8c-4-7.1-10.8-9.6-18.3-11c-2.7-0.7-5.5-0.7-8.2,0
			c-11.4,1.3-18.2,7.6-21.1,18.6c-0.7,2.6-0.8,2.6-2.8,2c-1.1-5.2-0.4-10.4-0.5-15.7c-0.1-5.9-0.1-5.9-5.9-6.1
			C13.8,144.7,11.7,145,10.1,143.5z"/>
		<path class="st0" d="M53.4,390.4c43.8,0,87.6,0,131.5,0c65.4,0,130.8,0,196.1,0c5.5,0,5.5,0,5.5,5.6c0,18.3,0,36.6,0,54.9
			c-124.2,0-248.5,0-372.7,0.1c-3,0-3.7-0.5-3.7-3.7c0.1-101.3,0.1-202.5,0.1-303.8c3,0,5.9,0.2,8.9-0.1c3.3-0.3,4.1,1.1,4,4.1
			c-0.2,6.6,0,13.2,0,19.8c1.3,1.3,1.2,3,1.2,4.7c-0.1,62.9,0,125.8,0,188.7c0.1,8.3,2,15.8,8.4,21.9c4.8,4.5,10.6,5.7,16.7,6.1
			C50.5,389.3,52.2,389.3,53.4,390.4z"/>
		<path class="st1" d="M383,190.3c-6.5,12.2-13,24.3-19.5,36.5c-8.5,16-16.8,32-25.7,47.8c-2.9,5.2-7.6,9.3-14.3,9.6
			c-2.6,0.5-5.1,0.4-7.7,0c-6.3-0.1-10.6-4-14.3-8.3c-4-4.6-6.2-10.5-9-15.8c-7.6-14-14.7-28.2-22.1-42.3c-4.7-9-9.6-17.9-15-26.9
			c0,1.5,0,2.9,0,4.4c0,31.9,0.1,63.8-0.1,95.7c-0.1,8.7-1.9,17.2-8.7,23.5c-3.5,3.3-7.8,5.4-12.7,5.2c-2.3-0.1-4.5,0.4-6.8,0.4
			c-7.4,0-12.4-3.5-17-8.6c-4.7-5.2-5.9-11.5-5.9-18.1c-0.4-1.1-0.3-2.2-0.3-3.4c0-62.2,0-124.4,0-186.6c0-1.1-0.2-2.3,0.3-3.4
			c-0.2-9.6,3.7-17,11.8-22.2c3.2-2.1,6.8-2.6,10.4-3.4c3.2-0.5,6.3-0.5,9.5,0c10.5,1.3,17.6,7.1,22.2,16.5
			c5.5,11.4,11.1,22.6,17,33.8c15,28.6,29.1,57.7,43.6,86.5c0.5,0.9,0.5,2.3,2,2.7c9.4-18.8,18.9-37.7,28.4-56.5
			c10.6-21,21.2-42,31.8-63c2.9-5.8,6.7-10.9,11.7-15.2c3.6-3.1,8.2-3.8,12.6-4.7c3.2-0.5,6.3-0.5,9.5,0c4.9,1.5,9.9,2.3,13.6,6.5
			c3.6,4.1,5.6,8.8,6.7,14c1.1,5,0.9,10.1,0.9,15.1c0,60.5,0.1,121.1-0.1,181.6c0,8.4-1.9,16.6-8.6,22.7c-4.2,3.8-9.1,5.3-14.8,5.6
			c-5.9,0.3-11.6,0.1-16.6-3.2c-7.3-4.7-10.6-11.8-11.1-20.3c-0.1-1-0.1-2-0.1-3c-0.6-1.5-0.3-3.1-0.3-4.6c0-31.5,0-62.9-0.1-94.4
			C384.3,193.1,385.7,190.9,383,190.3z"/>
		<path class="st1" d="M23,171.6c0-1.4-0.1-2.8-0.1-4.1c1.2-3.4,2-6.9,3.6-10.2c4-7.9,10.7-11.4,19.2-12.1c2.9-0.6,5.8-0.6,8.7,0
			c14.1,1.2,20.7,10.3,23.2,24c10.9-15.8,24.9-24,43-24.9c2.6-0.5,5.2-0.5,7.9,0c12.9,0.5,24.3,4.8,34.4,12.9
			c14.4,11.6,21.7,27.3,25.9,44.8c1.6,6.5,2.5,13.1,2.6,19.8c0.8,1.4-0.1,3,0.7,4.4c0,4.5,0,9.1,0,13.6c-0.8,1.4,0.1,3-0.7,4.4
			c-0.9,19.8-6.6,38.1-18.3,54.1c-8.3,11.5-19.6,18.8-33.7,21.5c-1.9,0.4-3.9,0.2-5.9,0.2c-1.5,0.5-3,0.2-4.4,0.3c-3,0-6,0-9,0
			c-1.5-0.1-3,0.3-4.5-0.3c-15.7-0.1-27.1-8.1-36.6-20.8c0,2.7,0,4.6,0,6.5c0,17.8,0.1,35.7,0,53.5c0,5.1-0.7,10.3-2.9,15
			c-4.4,9.6-11.6,15.4-22.6,15.6c-1.4,0.5-2.9,0.4-4.3,0c-9.6,0.3-17-3.4-22-11.6c-2.9-4.8-4.3-10.1-4.2-15.7
			c0.5-1.2,0.3-2.5,0.3-3.8c0-61.1,0-122.1,0-183.2C23.3,174.1,23.5,172.8,23,171.6z"/>
		<path class="st2" d="M166.9,74.5c12,0.4,21.8,8.9,23.8,20.8c0.2,1.1,0.6,2.1,0.9,3.1c0.5,2.3,0.4,4.6,0,6.8
			c-1.2,4.8-2,9.7-5.3,13.8c-5.3,6.6-11.7,11-20.6,10.9c-39.7-0.1-79.5-0.1-119.2,0c-10.8,0-20.4-8.6-23.5-18.2
			c-0.5-1.4-1.6-3.1-0.9-4.8c0.5-3.4,0.5-6.8,0-10.3c1.8-11.2,8.2-18.3,19.1-21.6c1.9-0.6,3.6-0.3,5.4-0.6c1.1-0.6,2.2-0.3,3.3-0.3
			c37.9,0,75.7,0,113.6,0C164.6,74.1,165.8,73.9,166.9,74.5z"/>
		<path class="st2" d="M100.3,364.2c-4.3-1-7.5-4.8-7.7-9.1c-0.2-3.9,3.1-8.7,6.6-9.6c4.6-1.2,9.7,0.8,12,4.8
			c1.9,3.2,1.1,8.2-1.9,11.1c-1.2,1.1-2,2.8-4,2.9C103.8,364.6,102,364.6,100.3,364.2z"/>
		<path class="st2" d="M179.5,364.2c-4.6-1-7.7-4.8-7.6-9.5c0-4.9,2.8-8.5,7.2-9.3c5.9-1.1,9.7,1.1,11.9,6.7
			c1.3,3.4-0.6,8.7-4.1,10.9c-0.9,0.6-2,0.8-3.1,1.2C182.4,364.6,181,364.6,179.5,364.2z"/>
		<path class="st2" d="M144.7,345.2c7.4,4.2,8.8,8.5,5.2,15.2c-1.2,2.2-3,3.2-5.2,3.8c-1.4,0.5-2.9,0.4-4.3,0c-4.2-0.5-7-2.8-7.6-7
			c-1-6.9,0.4-9,6.7-12C141.2,344.7,142.9,344.7,144.7,345.2z"/>
		<path class="st3" d="M204.1,100.1c0,1.7,0.1,3.4,0.1,5.1c0,61.1,0,122.1,0,183.2c0,1.7-0.1,3.4-0.1,5.1c-1.2-1.3-0.7-3-0.7-4.5
			c0-61.5,0-122.9,0-184.4C203.4,103,202.9,101.4,204.1,100.1z"/>
		<path class="st4" d="M166.9,74.5c-40.1,0-80.2,0-120.3,0c1.1-1.4,2.6-0.7,4-0.8c37.4,0,74.9,0,112.3,0
			C164.2,73.7,165.8,73.1,166.9,74.5z"/>
		<path class="st3" d="M383,190.3c0.2-0.9,0.3-2.3,1.6-0.9c0.4,0.4,0.2,1.4,0.2,2.1c0,34-0.1,68-0.1,102c-1.3-1.5-0.7-3.3-0.7-4.9
			c0-31.2,0-62.3-0.1-93.5C383.9,193.4,384.6,191.6,383,190.3z"/>
		<path class="st5" d="M22.2,96.7c1.1,3.4,1.1,6.8,0,10.3C22.2,103.5,22.2,100.1,22.2,96.7z"/>
		<path class="st6" d="M235.8,74.4c-3.2,0-6.3,0-9.5,0C229.5,73.2,232.6,73.2,235.8,74.4z"/>
		<path class="st7" d="M414.6,74.4c-3.2,0-6.3,0-9.5,0C408.3,73.2,411.5,73.2,414.6,74.4z"/>
		<path class="st8" d="M119.9,319.9c3.2,0,6.3,0,9.5,0c0.2,0.2,0.3,0.4,0.2,0.5c-0.1,0.1-0.2,0.2-0.3,0.2c-3.1,0-6.1,0-9.2,0
			c-0.3-0.1-0.4-0.2-0.4-0.4C119.7,320,119.8,319.9,119.9,319.9z"/>
		<path class="st9" d="M54.5,145.1c-2.9,0-5.8,0-8.7,0C48.7,143.9,51.6,143.9,54.5,145.1z"/>
		<path class="st9" d="M128.6,144.3c-2.6,0-5.2,0-7.9,0C123.3,143,125.9,143,128.6,144.3z"/>
		<path class="st10" d="M315.8,284.2c2.6,0,5.1,0,7.7,0C320.9,285.3,318.3,285.3,315.8,284.2z"/>
		<path class="st11" d="M191.6,105.2c0-2.3,0-4.6,0-6.8C192.7,100.6,192.7,102.9,191.6,105.2z"/>
		<path class="st12" d="M144.7,345.2c-1.7,0-3.5,0-5.2,0C141.2,344,142.9,344.1,144.7,345.2z"/>
		<path class="st13" d="M100.3,364.2c1.7,0,3.4,0,5.1,0C103.8,365.3,102,365.3,100.3,364.2z"/>
		<path class="st14" d="M119.9,319.9c0,0.2,0.1,0.4,0.2,0.6c-1.5,0-3.1,0.6-4.4-0.6C117.1,319.9,118.5,319.9,119.9,319.9z"/>
		<path class="st15" d="M192.2,226.1c-1.2-1.3-0.6-2.9-0.7-4.4C192.9,223,192.1,224.6,192.2,226.1z"/>
		<path class="st3" d="M129.2,320.5c0-0.2,0.1-0.4,0.1-0.6c1.4,0,2.8,0,4.2,0C132.3,321.1,130.7,320.5,129.2,320.5z"/>
		<path class="st9" d="M191.5,244.1c0.1-1.5-0.5-3.1,0.7-4.4C192.2,241.2,192.9,242.8,191.5,244.1z"/>
		<path class="st16" d="M140.4,364.2c1.4,0,2.9,0,4.3,0C143.2,365.3,141.8,365.3,140.4,364.2z"/>
		<path class="st16" d="M179.5,364.2c1.4,0,2.9,0,4.3,0C182.4,365.3,180.9,365.3,179.5,364.2z"/>
		<path class="st14" d="M49.2,389.8c1.4,0,2.9,0,4.3,0c0,0.2-0.1,0.5-0.1,0.7C52,390.3,50.5,391,49.2,389.8z"/>
		<path class="st9" d="M23,171.6c1.2,1.3,0.7,3,0.7,4.5c0,60.6,0,121.2,0,181.8c0,1.5,0.5,3.1-0.7,4.5c0-1.7-0.1-3.4-0.1-5.1
			c0-60.2,0-120.4,0-180.6C22.9,175,23,173.3,23,171.6z"/>
		<path class="st0" d="M103.7,276.2c-8.6-1.5-15.1-6.1-19.7-13.4c-3.6-5.6-5.3-12.1-5.5-18.4c-0.5-12.2-1.5-24.7,3.1-36.6
			c3.8-9.9,10.2-16.2,21-17.6c16.6-2.1,27.2,7.4,30.9,22.5c1,4,2.1,8.1,1.8,12.3c0.9,1.7-0.1,3.6,0.7,5.2c0,1.7,0,3.4,0,5.1
			c-0.7,1.7,0.2,3.6-0.6,5.2c-0.5,9.7-2.7,18.9-8.7,26.5c-3.9,5-9.2,8.3-16,8.4C108.4,276.4,105.9,275.4,103.7,276.2z"/>
		<path class="st17" d="M103.7,276.2c2.2-1.5,4.6-0.5,7-0.6C108.4,277.1,106,276.1,103.7,276.2z"/>
		<path class="st18" d="M136,230.4c-1.3-1.6-0.5-3.5-0.7-5.2C136.8,226.8,136,228.6,136,230.4z"/>
		<path class="st19" d="M135.3,240.7c0.1-1.7-0.6-3.6,0.6-5.2C136,237.2,136.8,239.1,135.3,240.7z"/>
	</g>
</g>
</svg>
